<svg version="1.1" xmlns="http://www.w3.org/2000/svg" xmlns:xlink="http://www.w3.org/1999/xlink" width="2181.97900390625" height="749"><defs/><g><g transform="translate(-30,-86) scale(1,1)"><rect fill="#C0C0C0" stroke="none" x="575" y="183" width="179.17431640625" height="280" opacity="0.2"/></g><g transform="translate(-30,-86) scale(1,1)"><rect fill="#ffffff" stroke="none" x="568" y="176" width="179.17431640625" height="280"/></g><g transform="translate(-30,-86) scale(1,1)"><path fill="none" stroke="#000000" d="M 568 176 L 747.17431640625 176 L 747.17431640625 456 L 568 456 L 568 176 Z Z" stroke-miterlimit="10"/></g><g transform="translate(-30,-86) scale(1,1)"><path fill="none" stroke="#000000" d="M 568 201 L 747.17431640625 201" stroke-miterlimit="10"/></g><g transform="translate(-30,-86) scale(1,1)"><path fill="none" stroke="#000000" d="M 568 314 L 747.17431640625 314" stroke-miterlimit="10"/></g><g transform="translate(-30,-86) scale(1,1)"><g><path fill="none" stroke="none"/><text fill="#000000" stroke="none" font-family="Arial" font-size="13px" font-style="normal" font-weight="bold" text-decoration="none" x="639.521728515625" y="194">Game</text></g></g><g transform="translate(-30,-86) scale(1,1)"><g><path fill="none" stroke="none"/><text fill="#000000" stroke="none" font-family="Arial" font-size="13px" font-style="normal" font-weight="normal" text-decoration="none" x="573" y="217">+serialVersionUID: long</text></g></g><g transform="translate(-30,-86) scale(1,1)"><g><path fill="none" stroke="none"/><text fill="#000000" stroke="none" font-family="Arial" font-size="13px" font-style="normal" font-weight="normal" text-decoration="none" x="573" y="232">+WIDTH: int</text></g></g><g transform="translate(-30,-86) scale(1,1)"><g><path fill="none" stroke="none"/><text fill="#000000" stroke="none" font-family="Arial" font-size="13px" font-style="normal" font-weight="normal" text-decoration="none" x="573" y="247">+HEIGHT: int</text></g></g><g transform="translate(-30,-86) scale(1,1)"><g><path fill="none" stroke="none"/><text fill="#000000" stroke="none" font-family="Arial" font-size="13px" font-style="normal" font-weight="normal" text-decoration="none" x="573" y="262">+SCALE: int</text></g></g><g transform="translate(-30,-86) scale(1,1)"><g><path fill="none" stroke="none"/><text fill="#000000" stroke="none" font-family="Arial" font-size="13px" font-style="normal" font-weight="normal" text-decoration="none" x="573" y="277">+TITLE: String</text></g></g><g transform="translate(-30,-86) scale(1,1)"><g><path fill="none" stroke="none"/><text fill="#000000" stroke="none" font-family="Arial" font-size="13px" font-style="normal" font-weight="normal" text-decoration="none" x="573" y="292">+running: boolean</text></g></g><g transform="translate(-30,-86) scale(1,1)"><g><path fill="none" stroke="none"/><text fill="#000000" stroke="none" font-family="Arial" font-size="13px" font-style="normal" font-weight="normal" text-decoration="none" x="573" y="307">+thread: Thread</text></g></g><g transform="translate(-30,-86) scale(1,1)"><g><path fill="none" stroke="none"/><text fill="#000000" stroke="none" font-family="Arial" font-size="13px" font-style="normal" font-weight="normal" text-decoration="none" x="573" y="330">+unit()</text></g></g><g transform="translate(-30,-86) scale(1,1)"><g><path fill="none" stroke="none"/><text fill="#000000" stroke="none" font-family="Arial" font-size="13px" font-style="normal" font-weight="normal" text-decoration="none" x="573" y="345">+setRenderStyle()</text></g></g><g transform="translate(-30,-86) scale(1,1)"><g><path fill="none" stroke="none"/><text fill="#000000" stroke="none" font-family="Arial" font-size="13px" font-style="normal" font-weight="normal" text-decoration="none" x="573" y="360">+keyPressed()</text></g></g><g transform="translate(-30,-86) scale(1,1)"><g><path fill="none" stroke="none"/><text fill="#000000" stroke="none" font-family="Arial" font-size="13px" font-style="normal" font-weight="normal" text-decoration="none" x="573" y="375">+keyReleased()</text></g></g><g transform="translate(-30,-86) scale(1,1)"><g><path fill="none" stroke="none"/><text fill="#000000" stroke="none" font-family="Arial" font-size="13px" font-style="normal" font-weight="normal" text-decoration="none" x="573" y="390">+start()</text></g></g><g transform="translate(-30,-86) scale(1,1)"><g><path fill="none" stroke="none"/><text fill="#000000" stroke="none" font-family="Arial" font-size="13px" font-style="normal" font-weight="normal" text-decoration="none" x="573" y="405">+stop()</text></g></g><g transform="translate(-30,-86) scale(1,1)"><g><path fill="none" stroke="none"/><text fill="#000000" stroke="none" font-family="Arial" font-size="13px" font-style="normal" font-weight="normal" text-decoration="none" x="573" y="420">+run()</text></g></g><g transform="translate(-30,-86) scale(1,1)"><g><path fill="none" stroke="none"/><text fill="#000000" stroke="none" font-family="Arial" font-size="13px" font-style="normal" font-weight="normal" text-decoration="none" x="573" y="435">+tick()</text></g></g><g transform="translate(-30,-86) scale(1,1)"><g><path fill="none" stroke="none"/><text fill="#000000" stroke="none" font-family="Arial" font-size="13px" font-style="normal" font-weight="normal" text-decoration="none" x="573" y="450">+render()</text></g></g><g transform="translate(-30,-86) scale(1,1)"><rect fill="#C0C0C0" stroke="none" x="479" y="551" width="89.57080078125" height="235" opacity="0.2"/></g><g transform="translate(-30,-86) scale(1,1)"><rect fill="#ffffff" stroke="none" x="472" y="544" width="89.57080078125" height="235"/></g><g transform="translate(-30,-86) scale(1,1)"><path fill="none" stroke="#000000" d="M 472 544 L 561.57080078125 544 L 561.57080078125 779 L 472 779 L 472 544 Z Z" stroke-miterlimit="10"/></g><g transform="translate(-30,-86) scale(1,1)"><path fill="none" stroke="#000000" d="M 472 569 L 561.57080078125 569" stroke-miterlimit="10"/></g><g transform="translate(-30,-86) scale(1,1)"><path fill="none" stroke="#000000" d="M 472 667 L 561.57080078125 667" stroke-miterlimit="10"/></g><g transform="translate(-30,-86) scale(1,1)"><g><path fill="none" stroke="none"/><text fill="#000000" stroke="none" font-family="Arial" font-size="13px" font-style="normal" font-weight="bold" text-decoration="none" x="499.075439453125" y="562">Payer</text></g></g><g transform="translate(-30,-86) scale(1,1)"><g><path fill="none" stroke="none"/><text fill="#000000" stroke="none" font-family="Arial" font-size="13px" font-style="normal" font-weight="normal" text-decoration="none" x="477" y="585">-x: double</text></g></g><g transform="translate(-30,-86) scale(1,1)"><g><path fill="none" stroke="none"/><text fill="#000000" stroke="none" font-family="Arial" font-size="13px" font-style="normal" font-weight="normal" text-decoration="none" x="477" y="600">-y: double</text></g></g><g transform="translate(-30,-86) scale(1,1)"><g><path fill="none" stroke="none"/><text fill="#000000" stroke="none" font-family="Arial" font-size="13px" font-style="normal" font-weight="normal" text-decoration="none" x="477" y="615">-velX: double</text></g></g><g transform="translate(-30,-86) scale(1,1)"><g><path fill="none" stroke="none"/><text fill="#000000" stroke="none" font-family="Arial" font-size="13px" font-style="normal" font-weight="normal" text-decoration="none" x="477" y="630">-velY: double</text></g></g><g transform="translate(-30,-86) scale(1,1)"><g><path fill="none" stroke="none"/><text fill="#000000" stroke="none" font-family="Arial" font-size="13px" font-style="normal" font-weight="normal" text-decoration="none" x="477" y="645">+WIDTH: int</text></g></g><g transform="translate(-30,-86) scale(1,1)"><g><path fill="none" stroke="none"/><text fill="#000000" stroke="none" font-family="Arial" font-size="13px" font-style="normal" font-weight="normal" text-decoration="none" x="477" y="660">+HEIGHT: int</text></g></g><g transform="translate(-30,-86) scale(1,1)"><g><path fill="none" stroke="none"/><text fill="#000000" stroke="none" font-family="Arial" font-size="13px" font-style="normal" font-weight="normal" text-decoration="none" x="477" y="683">+getX()</text></g></g><g transform="translate(-30,-86) scale(1,1)"><g><path fill="none" stroke="none"/><text fill="#000000" stroke="none" font-family="Arial" font-size="13px" font-style="normal" font-weight="normal" text-decoration="none" x="477" y="698">+getY()</text></g></g><g transform="translate(-30,-86) scale(1,1)"><g><path fill="none" stroke="none"/><text fill="#000000" stroke="none" font-family="Arial" font-size="13px" font-style="normal" font-weight="normal" text-decoration="none" x="477" y="713">+setVelX()</text></g></g><g transform="translate(-30,-86) scale(1,1)"><g><path fill="none" stroke="none"/><text fill="#000000" stroke="none" font-family="Arial" font-size="13px" font-style="normal" font-weight="normal" text-decoration="none" x="477" y="728">+setVekY()</text></g></g><g transform="translate(-30,-86) scale(1,1)"><g><path fill="none" stroke="none"/><text fill="#000000" stroke="none" font-family="Arial" font-size="13px" font-style="normal" font-weight="normal" text-decoration="none" x="477" y="743">+shoot()</text></g></g><g transform="translate(-30,-86) scale(1,1)"><g><path fill="none" stroke="none"/><text fill="#000000" stroke="none" font-family="Arial" font-size="13px" font-style="normal" font-weight="normal" text-decoration="none" x="477" y="758">+tick()</text></g></g><g transform="translate(-30,-86) scale(1,1)"><g><path fill="none" stroke="none"/><text fill="#000000" stroke="none" font-family="Arial" font-size="13px" font-style="normal" font-weight="normal" text-decoration="none" x="477" y="773">+render()</text></g></g><g transform="translate(-30,-86) scale(1,1)"><rect fill="#C0C0C0" stroke="none" x="655" y="543" width="219.6533203125" height="190" opacity="0.2"/></g><g transform="translate(-30,-86) scale(1,1)"><rect fill="#ffffff" stroke="none" x="648" y="536" width="219.6533203125" height="190"/></g><g transform="translate(-30,-86) scale(1,1)"><path fill="none" stroke="#000000" d="M 648 536 L 867.6533203125 536 L 867.6533203125 726 L 648 726 L 648 536 Z Z" stroke-miterlimit="10"/></g><g transform="translate(-30,-86) scale(1,1)"><path fill="none" stroke="#000000" d="M 648 561 L 867.6533203125 561" stroke-miterlimit="10"/></g><g transform="translate(-30,-86) scale(1,1)"><path fill="none" stroke="#000000" d="M 648 659 L 867.6533203125 659" stroke-miterlimit="10"/></g><g transform="translate(-30,-86) scale(1,1)"><g><path fill="none" stroke="none"/><text fill="#000000" stroke="none" font-family="Arial" font-size="13px" font-style="normal" font-weight="bold" text-decoration="none" x="739.770751953125" y="554">Bullet</text></g></g><g transform="translate(-30,-86) scale(1,1)"><g><path fill="none" stroke="none"/><text fill="#000000" stroke="none" font-family="Arial" font-size="13px" font-style="normal" font-weight="normal" text-decoration="none" x="653" y="577">+WIDTH: int</text></g></g><g transform="translate(-30,-86) scale(1,1)"><g><path fill="none" stroke="none"/><text fill="#000000" stroke="none" font-family="Arial" font-size="13px" font-style="normal" font-weight="normal" text-decoration="none" x="653" y="592">+HEIGHT: int</text></g></g><g transform="translate(-30,-86) scale(1,1)"><g><path fill="none" stroke="none"/><text fill="#000000" stroke="none" font-family="Arial" font-size="13px" font-style="normal" font-weight="normal" text-decoration="none" x="653" y="607">+x: int</text></g></g><g transform="translate(-30,-86) scale(1,1)"><g><path fill="none" stroke="none"/><text fill="#000000" stroke="none" font-family="Arial" font-size="13px" font-style="normal" font-weight="normal" text-decoration="none" x="653" y="622">+y: int</text></g></g><g transform="translate(-30,-86) scale(1,1)"><g><path fill="none" stroke="none"/><text fill="#000000" stroke="none" font-family="Arial" font-size="13px" font-style="normal" font-weight="normal" text-decoration="none" x="653" y="637">+velY: int</text></g></g><g transform="translate(-30,-86) scale(1,1)"><g><path fill="none" stroke="none"/><text fill="#000000" stroke="none" font-family="Arial" font-size="13px" font-style="normal" font-weight="normal" text-decoration="none" x="653" y="652">+spritesLoader: SpritesImageLoader</text></g></g><g transform="translate(-30,-86) scale(1,1)"><g><path fill="none" stroke="none"/><text fill="#000000" stroke="none" font-family="Arial" font-size="13px" font-style="normal" font-weight="normal" text-decoration="none" x="653" y="675">+tick()</text></g></g><g transform="translate(-30,-86) scale(1,1)"><g><path fill="none" stroke="none"/><text fill="#000000" stroke="none" font-family="Arial" font-size="13px" font-style="normal" font-weight="normal" text-decoration="none" x="653" y="690">+render()</text></g></g><g transform="translate(-30,-86) scale(1,1)"><g><path fill="none" stroke="none"/><text fill="#000000" stroke="none" font-family="Arial" font-size="13px" font-style="normal" font-weight="normal" text-decoration="none" x="653" y="705">+getX()</text></g></g><g transform="translate(-30,-86) scale(1,1)"><g><path fill="none" stroke="none"/><text fill="#000000" stroke="none" font-family="Arial" font-size="13px" font-style="normal" font-weight="normal" text-decoration="none" x="653" y="720">+getY()</text></g></g><g transform="translate(-30,-86) scale(1,1)"><rect fill="#C0C0C0" stroke="none" x="1131" y="527" width="105.8017578125" height="57" opacity="0.2"/></g><g transform="translate(-30,-86) scale(1,1)"><rect fill="#ffffff" stroke="none" x="1124" y="520" width="105.8017578125" height="57"/></g><g transform="translate(-30,-86) scale(1,1)"><path fill="none" stroke="#000000" d="M 1124 520 L 1229.8017578125 520 L 1229.8017578125 577 L 1124 577 L 1124 520 Z Z" stroke-miterlimit="10"/></g><g transform="translate(-30,-86) scale(1,1)"><path fill="none" stroke="#000000" d="M 1124 545 L 1229.8017578125 545" stroke-miterlimit="10"/></g><g transform="translate(-30,-86) scale(1,1)"><path fill="none" stroke="#000000" d="M 1124 555 L 1229.8017578125 555" stroke-miterlimit="10"/></g><g transform="translate(-30,-86) scale(1,1)"><g><path fill="none" stroke="none"/><text fill="#000000" stroke="none" font-family="Arial" font-size="13px" font-style="normal" font-weight="bold" text-decoration="none" x="1128.5" y="538">IBulletRenderer</text></g></g><g transform="translate(-30,-86) scale(1,1)"><g><path fill="none" stroke="none"/><text fill="#000000" stroke="none" font-family="Arial" font-size="13px" font-style="normal" font-weight="normal" text-decoration="none" x="1129" y="571">+render()</text></g></g><g transform="translate(-30,-86) scale(1,1)"><rect fill="#C0C0C0" stroke="none" x="279" y="271" width="108.7216796875" height="57" opacity="0.2"/></g><g transform="translate(-30,-86) scale(1,1)"><rect fill="#ffffff" stroke="none" x="272" y="264" width="108.7216796875" height="57"/></g><g transform="translate(-30,-86) scale(1,1)"><path fill="none" stroke="#000000" d="M 272 264 L 380.7216796875 264 L 380.7216796875 321 L 272 321 L 272 264 Z Z" stroke-miterlimit="10"/></g><g transform="translate(-30,-86) scale(1,1)"><path fill="none" stroke="#000000" d="M 272 289 L 380.7216796875 289" stroke-miterlimit="10"/></g><g transform="translate(-30,-86) scale(1,1)"><path fill="none" stroke="#000000" d="M 272 312 L 380.7216796875 312" stroke-miterlimit="10"/></g><g transform="translate(-30,-86) scale(1,1)"><g><path fill="none" stroke="none"/><text fill="#000000" stroke="none" font-family="Arial" font-size="13px" font-style="normal" font-weight="bold" text-decoration="none" x="276.5" y="282">IPlayerRenderer</text></g></g><g transform="translate(-30,-86) scale(1,1)"><g><path fill="none" stroke="none"/><text fill="#000000" stroke="none" font-family="Arial" font-size="13px" font-style="normal" font-weight="normal" text-decoration="none" x="277" y="305">+render: void</text></g></g><g transform="translate(-30,-86) scale(1,1)"><rect fill="#C0C0C0" stroke="none" x="1799" y="519" width="145.53173828125" height="57" opacity="0.2"/></g><g transform="translate(-30,-86) scale(1,1)"><rect fill="#ffffff" stroke="none" x="1792" y="512" width="145.53173828125" height="57"/></g><g transform="translate(-30,-86) scale(1,1)"><path fill="none" stroke="#000000" d="M 1792 512 L 1937.53173828125 512 L 1937.53173828125 569 L 1792 569 L 1792 512 Z Z" stroke-miterlimit="10"/></g><g transform="translate(-30,-86) scale(1,1)"><path fill="none" stroke="#000000" d="M 1792 537 L 1937.53173828125 537" stroke-miterlimit="10"/></g><g transform="translate(-30,-86) scale(1,1)"><path fill="none" stroke="#000000" d="M 1792 560 L 1937.53173828125 560" stroke-miterlimit="10"/></g><g transform="translate(-30,-86) scale(1,1)"><g><path fill="none" stroke="none"/><text fill="#000000" stroke="none" font-family="Arial" font-size="13px" font-style="normal" font-weight="bold" text-decoration="none" x="1796.5" y="530">IBackgroundRenderer</text></g></g><g transform="translate(-30,-86) scale(1,1)"><g><path fill="none" stroke="none"/><text fill="#000000" stroke="none" font-family="Arial" font-size="13px" font-style="normal" font-weight="normal" text-decoration="none" x="1797" y="553">+render: void</text></g></g><g transform="translate(-30,-86) scale(1,1)"><rect fill="#C0C0C0" stroke="none" x="423" y="414" width="129.66259765625" height="57" opacity="0.2"/></g><g transform="translate(-30,-86) scale(1,1)"><rect fill="#ffffff" stroke="none" x="416" y="407" width="129.66259765625" height="57"/></g><g transform="translate(-30,-86) scale(1,1)"><path fill="none" stroke="#000000" d="M 416 407 L 545.66259765625 407 L 545.66259765625 464 L 416 464 L 416 407 Z Z" stroke-miterlimit="10"/></g><g transform="translate(-30,-86) scale(1,1)"><path fill="none" stroke="#000000" d="M 416 432 L 545.66259765625 432" stroke-miterlimit="10"/></g><g transform="translate(-30,-86) scale(1,1)"><path fill="none" stroke="#000000" d="M 416 442 L 545.66259765625 442" stroke-miterlimit="10"/></g><g transform="translate(-30,-86) scale(1,1)"><g><path fill="none" stroke="none"/><text fill="#000000" stroke="none" font-family="Arial" font-size="13px" font-style="normal" font-weight="bold" text-decoration="none" x="420.5" y="425">SpritePlayerRender</text></g></g><g transform="translate(-30,-86) scale(1,1)"><g><path fill="none" stroke="none"/><text fill="#000000" stroke="none" font-family="Arial" font-size="13px" font-style="normal" font-weight="normal" text-decoration="none" x="421" y="458">+render()</text></g></g><g transform="translate(-30,-86) scale(1,1)"><rect fill="#C0C0C0" stroke="none" x="1299" y="647" width="145.92529296875" height="70" opacity="0.2"/></g><g transform="translate(-30,-86) scale(1,1)"><rect fill="#ffffff" stroke="none" x="1292" y="640" width="145.92529296875" height="70"/></g><g transform="translate(-30,-86) scale(1,1)"><path fill="none" stroke="#000000" d="M 1292 640 L 1437.92529296875 640 L 1437.92529296875 710 L 1292 710 L 1292 640 Z Z" stroke-miterlimit="10"/></g><g transform="translate(-30,-86) scale(1,1)"><path fill="none" stroke="#000000" d="M 1292 665 L 1437.92529296875 665" stroke-miterlimit="10"/></g><g transform="translate(-30,-86) scale(1,1)"><path fill="none" stroke="#000000" d="M 1292 688 L 1437.92529296875 688" stroke-miterlimit="10"/></g><g transform="translate(-30,-86) scale(1,1)"><g><path fill="none" stroke="none"/><text fill="#000000" stroke="none" font-family="Arial" font-size="13px" font-style="normal" font-weight="bold" text-decoration="none" x="1306.09130859375" y="658">SpriteBulletRender</text></g></g><g transform="translate(-30,-86) scale(1,1)"><g><path fill="none" stroke="none"/><text fill="#000000" stroke="none" font-family="Arial" font-size="13px" font-style="normal" font-weight="normal" text-decoration="none" x="1297" y="681">+image: BufferedImage</text></g></g><g transform="translate(-30,-86) scale(1,1)"><g><path fill="none" stroke="none"/><text fill="#000000" stroke="none" font-family="Arial" font-size="13px" font-style="normal" font-weight="normal" text-decoration="none" x="1297" y="704">+render()</text></g></g><g transform="translate(-30,-86) scale(1,1)"><rect fill="#C0C0C0" stroke="none" x="1111" y="655" width="175.87353515625" height="57" opacity="0.2"/></g><g transform="translate(-30,-86) scale(1,1)"><rect fill="#ffffff" stroke="none" x="1104" y="648" width="175.87353515625" height="57"/></g><g transform="translate(-30,-86) scale(1,1)"><path fill="none" stroke="#000000" d="M 1104 648 L 1279.87353515625 648 L 1279.87353515625 705 L 1104 705 L 1104 648 Z Z" stroke-miterlimit="10"/></g><g transform="translate(-30,-86) scale(1,1)"><path fill="none" stroke="#000000" d="M 1104 673 L 1279.87353515625 673" stroke-miterlimit="10"/></g><g transform="translate(-30,-86) scale(1,1)"><path fill="none" stroke="#000000" d="M 1104 683 L 1279.87353515625 683" stroke-miterlimit="10"/></g><g transform="translate(-30,-86) scale(1,1)"><g><path fill="none" stroke="none"/><text fill="#000000" stroke="none" font-family="Arial" font-size="13px" font-style="normal" font-weight="bold" text-decoration="none" x="1125.470458984375" y="666">VectorBulletRenderer</text></g></g><g transform="translate(-30,-86) scale(1,1)"><g><path fill="none" stroke="none"/><text fill="#000000" stroke="none" font-family="Arial" font-size="13px" font-style="normal" font-weight="normal" text-decoration="none" x="1109" y="699">+render(): void</text></g></g><g transform="translate(-30,-86) scale(1,1)"><rect fill="#C0C0C0" stroke="none" x="231" y="415" width="178.79345703125" height="57" opacity="0.2"/></g><g transform="translate(-30,-86) scale(1,1)"><rect fill="#ffffff" stroke="none" x="224" y="408" width="178.79345703125" height="57"/></g><g transform="translate(-30,-86) scale(1,1)"><path fill="none" stroke="#000000" d="M 224 408 L 402.79345703125 408 L 402.79345703125 465 L 224 465 L 224 408 Z Z" stroke-miterlimit="10"/></g><g transform="translate(-30,-86) scale(1,1)"><path fill="none" stroke="#000000" d="M 224 433 L 402.79345703125 433" stroke-miterlimit="10"/></g><g transform="translate(-30,-86) scale(1,1)"><path fill="none" stroke="#000000" d="M 224 443 L 402.79345703125 443" stroke-miterlimit="10"/></g><g transform="translate(-30,-86) scale(1,1)"><g><path fill="none" stroke="none"/><text fill="#000000" stroke="none" font-family="Arial" font-size="13px" font-style="normal" font-weight="bold" text-decoration="none" x="245.470458984375" y="426">VectorPlayerRenderer</text></g></g><g transform="translate(-30,-86) scale(1,1)"><g><path fill="none" stroke="none"/><text fill="#000000" stroke="none" font-family="Arial" font-size="13px" font-style="normal" font-weight="normal" text-decoration="none" x="229" y="459">+render()</text></g></g><g transform="translate(-30,-86) scale(1,1)"><rect fill="#C0C0C0" stroke="none" x="1495" y="279" width="319.36865234375" height="87" opacity="0.2"/></g><g transform="translate(-30,-86) scale(1,1)"><rect fill="#ffffff" stroke="none" x="1488" y="272" width="319.36865234375" height="87"/></g><g transform="translate(-30,-86) scale(1,1)"><path fill="none" stroke="#000000" d="M 1488 272 L 1807.36865234375 272 L 1807.36865234375 359 L 1488 359 L 1488 272 Z Z" stroke-miterlimit="10"/></g><g transform="translate(-30,-86) scale(1,1)"><path fill="none" stroke="#000000" d="M 1488 297 L 1807.36865234375 297" stroke-miterlimit="10"/></g><g transform="translate(-30,-86) scale(1,1)"><path fill="none" stroke="#000000" d="M 1488 307 L 1807.36865234375 307" stroke-miterlimit="10"/></g><g transform="translate(-30,-86) scale(1,1)"><g><path fill="none" stroke="none"/><text fill="#000000" stroke="none" font-family="Arial" font-size="13px" font-style="normal" font-weight="bold" text-decoration="none" x="1558.823486328125" y="290">ColorVectorRendererFactory</text></g></g><g transform="translate(-30,-86) scale(1,1)"><g><path fill="none" stroke="none"/><text fill="#000000" stroke="none" font-family="Arial" font-size="13px" font-style="normal" font-weight="normal" text-decoration="none" x="1493" y="323">+createPlayerRonderer(): IPlayerRenderer</text></g></g><g transform="translate(-30,-86) scale(1,1)"><g><path fill="none" stroke="none"/><text fill="#000000" stroke="none" font-family="Arial" font-size="13px" font-style="normal" font-weight="normal" text-decoration="none" x="1493" y="338">+createBulletRenderer(): IBulletRenderer</text></g></g><g transform="translate(-30,-86) scale(1,1)"><g><path fill="none" stroke="none"/><text fill="#000000" stroke="none" font-family="Arial" font-size="13px" font-style="normal" font-weight="normal" text-decoration="none" x="1493" y="353">+createBackgroundRenderer(): IBackgroundRenderer</text></g></g><g transform="translate(-30,-86) scale(1,1)"><rect fill="#C0C0C0" stroke="none" x="1167" y="279" width="319.36865234375" height="87" opacity="0.2"/></g><g transform="translate(-30,-86) scale(1,1)"><rect fill="#ffffff" stroke="none" x="1160" y="272" width="319.36865234375" height="87"/></g><g transform="translate(-30,-86) scale(1,1)"><path fill="none" stroke="#000000" d="M 1160 272 L 1479.36865234375 272 L 1479.36865234375 359 L 1160 359 L 1160 272 Z Z" stroke-miterlimit="10"/></g><g transform="translate(-30,-86) scale(1,1)"><path fill="none" stroke="#000000" d="M 1160 297 L 1479.36865234375 297" stroke-miterlimit="10"/></g><g transform="translate(-30,-86) scale(1,1)"><path fill="none" stroke="#000000" d="M 1160 307 L 1479.36865234375 307" stroke-miterlimit="10"/></g><g transform="translate(-30,-86) scale(1,1)"><g><path fill="none" stroke="none"/><text fill="#000000" stroke="none" font-family="Arial" font-size="13px" font-style="normal" font-weight="bold" text-decoration="none" x="1249.244384765625" y="290">SpriteRendererFactory</text></g></g><g transform="translate(-30,-86) scale(1,1)"><g><path fill="none" stroke="none"/><text fill="#000000" stroke="none" font-family="Arial" font-size="13px" font-style="normal" font-weight="normal" text-decoration="none" x="1165" y="323">+createPlayerRonderer(): IPlayerRenderer</text></g></g><g transform="translate(-30,-86) scale(1,1)"><g><path fill="none" stroke="none"/><text fill="#000000" stroke="none" font-family="Arial" font-size="13px" font-style="normal" font-weight="normal" text-decoration="none" x="1165" y="338">+createBulletRenderer(): IBulletRenderer</text></g></g><g transform="translate(-30,-86) scale(1,1)"><g><path fill="none" stroke="none"/><text fill="#000000" stroke="none" font-family="Arial" font-size="13px" font-style="normal" font-weight="normal" text-decoration="none" x="1165" y="353">+createBackgroundRenderer(): IBackgroundRenderer</text></g></g><g transform="translate(-30,-86) scale(1,1)"><rect fill="#C0C0C0" stroke="none" x="1591" y="663" width="181.66259765625" height="57" opacity="0.2"/></g><g transform="translate(-30,-86) scale(1,1)"><rect fill="#ffffff" stroke="none" x="1584" y="656" width="181.66259765625" height="57"/></g><g transform="translate(-30,-86) scale(1,1)"><path fill="none" stroke="#000000" d="M 1584 656 L 1765.66259765625 656 L 1765.66259765625 713 L 1584 713 L 1584 656 Z Z" stroke-miterlimit="10"/></g><g transform="translate(-30,-86) scale(1,1)"><path fill="none" stroke="#000000" d="M 1584 681 L 1765.66259765625 681" stroke-miterlimit="10"/></g><g transform="translate(-30,-86) scale(1,1)"><path fill="none" stroke="#000000" d="M 1584 691 L 1765.66259765625 691" stroke-miterlimit="10"/></g><g transform="translate(-30,-86) scale(1,1)"><g><path fill="none" stroke="none"/><text fill="#000000" stroke="none" font-family="Arial" font-size="13px" font-style="normal" font-weight="bold" text-decoration="none" x="1588.5" y="674">VectorBackgroundRenderer</text></g></g><g transform="translate(-30,-86) scale(1,1)"><g><path fill="none" stroke="none"/><text fill="#000000" stroke="none" font-family="Arial" font-size="13px" font-style="normal" font-weight="normal" text-decoration="none" x="1589" y="707">+render()</text></g></g><g transform="translate(-30,-86) scale(1,1)"><rect fill="#C0C0C0" stroke="none" x="1791" y="663" width="215.603515625" height="57" opacity="0.2"/></g><g transform="translate(-30,-86) scale(1,1)"><rect fill="#ffffff" stroke="none" x="1784" y="656" width="215.603515625" height="57"/></g><g transform="translate(-30,-86) scale(1,1)"><path fill="none" stroke="#000000" d="M 1784 656 L 1999.603515625 656 L 1999.603515625 713 L 1784 713 L 1784 656 Z Z" stroke-miterlimit="10"/></g><g transform="translate(-30,-86) scale(1,1)"><path fill="none" stroke="#000000" d="M 1784 681 L 1999.603515625 681" stroke-miterlimit="10"/></g><g transform="translate(-30,-86) scale(1,1)"><path fill="none" stroke="#000000" d="M 1784 691 L 1999.603515625 691" stroke-miterlimit="10"/></g><g transform="translate(-30,-86) scale(1,1)"><g><path fill="none" stroke="none"/><text fill="#000000" stroke="none" font-family="Arial" font-size="13px" font-style="normal" font-weight="bold" text-decoration="none" x="1788.5" y="674">ColorVectorBackgroundRenderer</text></g></g><g transform="translate(-30,-86) scale(1,1)"><g><path fill="none" stroke="none"/><text fill="#000000" stroke="none" font-family="Arial" font-size="13px" font-style="normal" font-weight="normal" text-decoration="none" x="1789" y="707">+render()</text></g></g><g transform="translate(-30,-86) scale(1,1)"><rect fill="#C0C0C0" stroke="none" x="1287" y="127" width="176.298828125" height="88" opacity="0.2"/></g><g transform="translate(-30,-86) scale(1,1)"><rect fill="#ffffff" stroke="none" x="1280" y="120" width="176.298828125" height="88"/></g><g transform="translate(-30,-86) scale(1,1)"><path fill="none" stroke="#000000" d="M 1280 120 L 1456.298828125 120 L 1456.298828125 208 L 1280 208 L 1280 120 Z Z" stroke-miterlimit="10"/></g><g transform="translate(-30,-86) scale(1,1)"><path fill="none" stroke="#000000" d="M 1280 145 L 1456.298828125 145" stroke-miterlimit="10"/></g><g transform="translate(-30,-86) scale(1,1)"><path fill="none" stroke="#000000" d="M 1280 198 L 1456.298828125 198" stroke-miterlimit="10"/></g><g transform="translate(-30,-86) scale(1,1)"><g><path fill="none" stroke="none"/><text fill="#000000" stroke="none" font-family="Arial" font-size="13px" font-style="normal" font-weight="bold" text-decoration="none" x="1322.27490234375" y="138">RenderFactory</text></g></g><g transform="translate(-30,-86) scale(1,1)"><g><path fill="none" stroke="none"/><text fill="#000000" stroke="none" font-family="Arial" font-size="13px" font-style="normal" font-weight="normal" text-decoration="none" x="1285" y="161">+createPayerRenderer</text></g></g><g transform="translate(-30,-86) scale(1,1)"><g><path fill="none" stroke="none"/><text fill="#000000" stroke="none" font-family="Arial" font-size="13px" font-style="normal" font-weight="normal" text-decoration="none" x="1285" y="176">+createBulletRenderer</text></g></g><g transform="translate(-30,-86) scale(1,1)"><g><path fill="none" stroke="none"/><text fill="#000000" stroke="none" font-family="Arial" font-size="13px" font-style="normal" font-weight="normal" text-decoration="none" x="1285" y="191">+createBackgroundRenderer</text></g></g><g transform="translate(-30,-86) scale(1,1)"><g><path fill="none" stroke="none"/><text fill="#000000" stroke="none" font-family="Arial" font-size="13px" font-style="normal" font-weight="normal" text-decoration="none" x="1341" y="111">&lt;Abstract&gt;</text></g></g><g transform="translate(-30,-86) scale(1,1)"><g><path fill="none" stroke="none"/><text fill="#000000" stroke="none" font-family="Arial" font-size="13px" font-style="normal" font-weight="normal" text-decoration="none" x="1145" y="519">&lt;interface&gt;</text></g></g><g transform="translate(-30,-86) scale(1,1)"><g><path fill="none" stroke="none"/><text fill="#000000" stroke="none" font-family="Arial" font-size="13px" font-style="normal" font-weight="normal" text-decoration="none" x="277" y="262">&lt;interface&gt;</text></g></g><g transform="translate(-30,-86) scale(1,1)"><g><path fill="none" stroke="none"/><text fill="#000000" stroke="none" font-family="Arial" font-size="13px" font-style="normal" font-weight="normal" text-decoration="none" x="1829" y="503">&lt;interface&gt;</text></g></g><g transform="translate(-30,-86) scale(1,1)"><rect fill="#C0C0C0" stroke="none" x="2023" y="655" width="185.97900390625" height="70" opacity="0.2"/></g><g transform="translate(-30,-86) scale(1,1)"><rect fill="#ffffff" stroke="none" x="2016" y="648" width="185.97900390625" height="70"/></g><g transform="translate(-30,-86) scale(1,1)"><path fill="none" stroke="#000000" d="M 2016 648 L 2201.97900390625 648 L 2201.97900390625 718 L 2016 718 L 2016 648 Z Z" stroke-miterlimit="10"/></g><g transform="translate(-30,-86) scale(1,1)"><path fill="none" stroke="#000000" d="M 2016 673 L 2201.97900390625 673" stroke-miterlimit="10"/></g><g transform="translate(-30,-86) scale(1,1)"><path fill="none" stroke="#000000" d="M 2016 696 L 2201.97900390625 696" stroke-miterlimit="10"/></g><g transform="translate(-30,-86) scale(1,1)"><g><path fill="none" stroke="none"/><text fill="#000000" stroke="none" font-family="Arial" font-size="13px" font-style="normal" font-weight="bold" text-decoration="none" x="2020.5" y="666">BitmapBackgroundRenderer</text></g></g><g transform="translate(-30,-86) scale(1,1)"><g><path fill="none" stroke="none"/><text fill="#000000" stroke="none" font-family="Arial" font-size="13px" font-style="normal" font-weight="normal" text-decoration="none" x="2021" y="689">+background: BufferedImage</text></g></g><g transform="translate(-30,-86) scale(1,1)"><g><path fill="none" stroke="none"/><text fill="#000000" stroke="none" font-family="Arial" font-size="13px" font-style="normal" font-weight="normal" text-decoration="none" x="2021" y="712">+render()</text></g></g><g transform="translate(-30,-86) scale(1,1)"><path fill="none" stroke="#000000" d="M 599 457 L 563 547" stroke-miterlimit="10"/></g><g transform="translate(-30,-86) scale(1,1)"><path fill="none" stroke="#000000" d="M 562.8658835726114 536.0008176311189 L 563 547 L 570.6827618052683 539.1275689241817" stroke-miterlimit="10"/></g><g transform="translate(-30,-86) scale(1,1)"><path fill="none" stroke="#000000" d="M 702 457 L 727 535" stroke-miterlimit="10"/></g><g transform="translate(-30,-86) scale(1,1)"><path fill="none" stroke="#000000" d="M 719.8895125734506 526.6070881955734 L 727 535 L 727.9068109739559 524.0374412723346" stroke-miterlimit="10"/></g><g transform="translate(-30,-86) scale(1,1)"><path fill="none" stroke="#000000" d="M 1188 647 L 1180 578" stroke-miterlimit="10" stroke-dasharray="3"/></g><g transform="translate(-30,-86) scale(1,1)"><path fill="none" stroke="#000000" d="M 1185.3519470628555 587.6102373870989 L 1180 578 L 1176.9889340354664 588.5798620859266" stroke-miterlimit="10"/></g><g transform="translate(-30,-86) scale(1,1)"><path fill="none" stroke="#000000" d="M 1311 639 L 1220 578" stroke-miterlimit="10" stroke-dasharray="3"/></g><g transform="translate(-30,-86) scale(1,1)"><path fill="none" stroke="#000000" d="M 1230.785438046553 580.1620189971339 L 1220 578 L 1226.0976780868575 587.1552346747126" stroke-miterlimit="10"/></g><g transform="translate(-30,-86) scale(1,1)"><path fill="none" stroke="#000000" d="M 1712 655 L 1824 570" stroke-miterlimit="10" stroke-dasharray="3"/></g><g transform="translate(-30,-86) scale(1,1)"><path fill="none" stroke="#000000" d="M 1818.449516769445 579.496954033127 L 1824 570 L 1813.3598550713714 572.7905762662534" stroke-miterlimit="10"/></g><g transform="translate(-30,-86) scale(1,1)"><path fill="none" stroke="#000000" d="M 1886 655 L 1870 570" stroke-miterlimit="10" stroke-dasharray="3"/></g><g transform="translate(-30,-86) scale(1,1)"><path fill="none" stroke="#000000" d="M 1876.0168240804815 579.2085736129185 L 1870 570 L 1867.7430922617648 580.7659819552651" stroke-miterlimit="10"/></g><g transform="translate(-30,-86) scale(1,1)"><path fill="none" stroke="#000000" d="M 2047 647 L 1915 570" stroke-miterlimit="10" stroke-dasharray="3"/></g><g transform="translate(-30,-86) scale(1,1)"><path fill="none" stroke="#000000" d="M 1925.8993581473924 571.484584781975 L 1915 570 L 1921.657250090021 578.7567700231829" stroke-miterlimit="10"/></g><g transform="translate(-30,-86) scale(1,1)"><path fill="none" stroke="#000000" d="M 1333 271 L 1353 209" stroke-miterlimit="10" stroke-dasharray="3"/></g><g transform="translate(-30,-86) scale(1,1)"><path fill="none" stroke="#000000" d="M 1353.8862648922748 219.9642388947305 L 1353 209 L 1345.8737962422417 217.37957158826828" stroke-miterlimit="10"/></g><g transform="translate(-30,-86) scale(1,1)"><path fill="none" stroke="#000000" d="M 1566 271 L 1451 209" stroke-miterlimit="10" stroke-dasharray="3"/></g><g transform="translate(-30,-86) scale(1,1)"><path fill="none" stroke="#000000" d="M 1461.9430953208484 210.1174367090906 L 1451 209 L 1457.947789833998 217.52808398308753" stroke-miterlimit="10"/></g><g transform="translate(-30,-86) scale(1,1)"><path fill="none" stroke="#000000" d="M 748 357 L 1123 524" stroke-miterlimit="10"/></g><g transform="translate(-30,-86) scale(1,1)"><path fill="none" stroke="#000000" d="M 1112.003794614202 523.7110932445459 L 1123 524 L 1115.4287965302944 516.02022067847" stroke-miterlimit="10"/></g><g transform="translate(-30,-86) scale(1,1)"><path fill="none" stroke="#000000" d="M 748 333 L 1791 526" stroke-miterlimit="10"/></g><g transform="translate(-30,-86) scale(1,1)"><path fill="none" stroke="#000000" d="M 1780.2410311249037 528.290106710332 L 1791 526 L 1781.7729101653279 520.0116101343609" stroke-miterlimit="10"/></g><g transform="translate(-30,-86) scale(1,1)"><path fill="none" stroke="#000000" d="M 748 297 L 1279 183" stroke-miterlimit="10"/></g><g transform="translate(-30,-86) scale(1,1)"><path fill="#FFFFFF" stroke="none" d="M 1260.8946771898095 195.49789125968056 L 1279 183 L 1257.3602598050907 179.0349471255951"/></g><g transform="translate(-30,-86) scale(1,1)"><path fill="none" stroke="#000000" d="M 1260.8946771898095 195.49789125968056 L 1279 183 L 1257.3602598050907 179.0349471255951 L 1260.8946771898095 195.49789125968056" stroke-miterlimit="10"/></g><g transform="translate(-30,-86) scale(1,1)"><path fill="none" stroke="#000000" d="M 752 726 L 752 824 L 1188 824 L 1188 705" stroke-miterlimit="10"/></g><g transform="translate(-30,-86) scale(1,1)"><path fill="none" stroke="#000000" d="M 1192.2095177560159 715.1626748576241 L 1188 705 L 1183.7904822439841 715.1626748576241" stroke-miterlimit="10"/></g><g transform="translate(-30,-86) scale(1,1)"><path fill="none" stroke="#000000" d="M 752 726 L 752 824 L 1364 824 L 1364 710" stroke-miterlimit="10"/></g><g transform="translate(-30,-86) scale(1,1)"><path fill="none" stroke="#000000" d="M 1368.2095177560159 720.1626748576241 L 1364 710 L 1359.7904822439841 720.1626748576241" stroke-miterlimit="10"/></g><g transform="translate(-30,-86) scale(1,1)"><path fill="none" stroke="#000000" d="M 568 288 L 381 288" stroke-miterlimit="10"/></g><g transform="translate(-30,-86) scale(1,1)"><path fill="none" stroke="#000000" d="M 391.16267485762415 283.790482243984 L 381 288 L 391.16267485762415 292.209517756016" stroke-miterlimit="10"/></g><g transform="translate(-30,-86) scale(1,1)"><path fill="none" stroke="#000000" d="M 480 407 L 480 386 L 344 386 L 344 321" stroke-miterlimit="10" stroke-dasharray="3"/></g><g transform="translate(-30,-86) scale(1,1)"><path fill="none" stroke="#000000" d="M 348.209517756016 331.16267485762415 L 344 321 L 339.790482243984 331.16267485762415" stroke-miterlimit="10"/></g><g transform="translate(-30,-86) scale(1,1)"><path fill="none" stroke="#000000" d="M 328 408 L 328 321" stroke-miterlimit="10" stroke-dasharray="3"/></g><g transform="translate(-30,-86) scale(1,1)"><path fill="none" stroke="#000000" d="M 332.209517756016 331.16267485762415 L 328 321 L 323.790482243984 331.16267485762415" stroke-miterlimit="10"/></g><g transform="translate(-30,-86) scale(1,1)"><path fill="none" stroke="#000000" d="M 152 408 L 152 387 L 312 387 L 312 321" stroke-miterlimit="10" stroke-dasharray="3"/></g><g transform="translate(-30,-86) scale(1,1)"><path fill="none" stroke="#000000" d="M 316.209517756016 331.16267485762415 L 312 321 L 307.790482243984 331.16267485762415" stroke-miterlimit="10"/></g><g transform="translate(-30,-86) scale(1,1)"><rect fill="#C0C0C0" stroke="none" x="47" y="415" width="178.79345703125" height="57" opacity="0.2"/></g><g transform="translate(-30,-86) scale(1,1)"><rect fill="#ffffff" stroke="none" x="40" y="408" width="178.79345703125" height="57"/></g><g transform="translate(-30,-86) scale(1,1)"><path fill="none" stroke="#000000" d="M 40 408 L 218.79345703125 408 L 218.79345703125 465 L 40 465 L 40 408 Z Z" stroke-miterlimit="10"/></g><g transform="translate(-30,-86) scale(1,1)"><path fill="none" stroke="#000000" d="M 40 433 L 218.79345703125 433" stroke-miterlimit="10"/></g><g transform="translate(-30,-86) scale(1,1)"><path fill="none" stroke="#000000" d="M 40 443 L 218.79345703125 443" stroke-miterlimit="10"/></g><g transform="translate(-30,-86) scale(1,1)"><g><path fill="none" stroke="none"/><text fill="#000000" stroke="none" font-family="Arial" font-size="13px" font-style="normal" font-weight="bold" text-decoration="none" x="44.5" y="426">ColorVectorPlayerRenderer</text></g></g><g transform="translate(-30,-86) scale(1,1)"><g><path fill="none" stroke="none"/><text fill="#000000" stroke="none" font-family="Arial" font-size="13px" font-style="normal" font-weight="normal" text-decoration="none" x="45" y="459">+render()</text></g></g><g transform="translate(-30,-86) scale(1,1)"><path fill="none" stroke="#000000" d="M 472 664 L 432 664 L 432 523 L 472 523 L 472 464" stroke-miterlimit="10"/></g><g transform="translate(-30,-86) scale(1,1)"><path fill="none" stroke="#000000" d="M 476.209517756016 474.16267485762415 L 472 464 L 467.790482243984 474.16267485762415" stroke-miterlimit="10"/></g><g transform="translate(-30,-86) scale(1,1)"><path fill="none" stroke="#000000" d="M 472 664 L 432 664 L 432 523 L 312 523 L 312 465" stroke-miterlimit="10"/></g><g transform="translate(-30,-86) scale(1,1)"><path fill="none" stroke="#000000" d="M 316.209517756016 475.16267485762415 L 312 465 L 307.790482243984 475.16267485762415" stroke-miterlimit="10"/></g><g transform="translate(-30,-86) scale(1,1)"><path fill="none" stroke="#000000" d="M 472 664 L 432 664 L 432 523 L 120 523 L 120 465" stroke-miterlimit="10"/></g><g transform="translate(-30,-86) scale(1,1)"><path fill="none" stroke="#000000" d="M 124.20951775601598 475.16267485762415 L 120 465 L 115.79048224398402 475.16267485762415" stroke-miterlimit="10"/></g><g transform="translate(-30,-86) scale(1,1)"><rect fill="#C0C0C0" stroke="none" x="927" y="655" width="175.87353515625" height="57" opacity="0.2"/></g><g transform="translate(-30,-86) scale(1,1)"><rect fill="#ffffff" stroke="none" x="920" y="648" width="175.87353515625" height="57"/></g><g transform="translate(-30,-86) scale(1,1)"><path fill="none" stroke="#000000" d="M 920 648 L 1095.87353515625 648 L 1095.87353515625 705 L 920 705 L 920 648 Z Z" stroke-miterlimit="10"/></g><g transform="translate(-30,-86) scale(1,1)"><path fill="none" stroke="#000000" d="M 920 673 L 1095.87353515625 673" stroke-miterlimit="10"/></g><g transform="translate(-30,-86) scale(1,1)"><path fill="none" stroke="#000000" d="M 920 683 L 1095.87353515625 683" stroke-miterlimit="10"/></g><g transform="translate(-30,-86) scale(1,1)"><g><path fill="none" stroke="none"/><text fill="#000000" stroke="none" font-family="Arial" font-size="13px" font-style="normal" font-weight="bold" text-decoration="none" x="924.5" y="666">ColorVectorBulletRenderer</text></g></g><g transform="translate(-30,-86) scale(1,1)"><g><path fill="none" stroke="none"/><text fill="#000000" stroke="none" font-family="Arial" font-size="13px" font-style="normal" font-weight="normal" text-decoration="none" x="925" y="699">+render()</text></g></g><g transform="translate(-30,-86) scale(1,1)"><path fill="none" stroke="#000000" d="M 752 726 L 752 824 L 1016 824 L 1016 705" stroke-miterlimit="10"/></g><g transform="translate(-30,-86) scale(1,1)"><path fill="none" stroke="#000000" d="M 1020.209517756016 715.1626748576241 L 1016 705 L 1011.790482243984 715.1626748576241" stroke-miterlimit="10"/></g><g transform="translate(-30,-86) scale(1,1)"><path fill="none" stroke="#000000" d="M 1045 647 L 1136 578" stroke-miterlimit="10" stroke-dasharray="3"/></g><g transform="translate(-30,-86) scale(1,1)"><path fill="none" stroke="#000000" d="M 1130.4453771292315 587.4945334147358 L 1136 578 L 1125.3586395393836 580.7859374629077" stroke-miterlimit="10"/></g><g transform="translate(-30,-86) scale(1,1)"><rect fill="#C0C0C0" stroke="none" x="1623" y="151" width="319.36865234375" height="87" opacity="0.2"/></g><g transform="translate(-30,-86) scale(1,1)"><rect fill="#ffffff" stroke="none" x="1616" y="144" width="319.36865234375" height="87"/></g><g transform="translate(-30,-86) scale(1,1)"><path fill="none" stroke="#000000" d="M 1616 144 L 1935.36865234375 144 L 1935.36865234375 231 L 1616 231 L 1616 144 Z Z" stroke-miterlimit="10"/></g><g transform="translate(-30,-86) scale(1,1)"><path fill="none" stroke="#000000" d="M 1616 169 L 1935.36865234375 169" stroke-miterlimit="10"/></g><g transform="translate(-30,-86) scale(1,1)"><path fill="none" stroke="#000000" d="M 1616 179 L 1935.36865234375 179" stroke-miterlimit="10"/></g><g transform="translate(-30,-86) scale(1,1)"><g><path fill="none" stroke="none"/><text fill="#000000" stroke="none" font-family="Arial" font-size="13px" font-style="normal" font-weight="bold" text-decoration="none" x="1709.218017578125" y="162">VectorBulletRenderer</text></g></g><g transform="translate(-30,-86) scale(1,1)"><g><path fill="none" stroke="none"/><text fill="#000000" stroke="none" font-family="Arial" font-size="13px" font-style="normal" font-weight="normal" text-decoration="none" x="1621" y="195">+createPlayerRonderer(): IPlayerRenderer</text></g></g><g transform="translate(-30,-86) scale(1,1)"><g><path fill="none" stroke="none"/><text fill="#000000" stroke="none" font-family="Arial" font-size="13px" font-style="normal" font-weight="normal" text-decoration="none" x="1621" y="210">+createBulletRenderer(): IBulletRenderer</text></g></g><g transform="translate(-30,-86) scale(1,1)"><g><path fill="none" stroke="none"/><text fill="#000000" stroke="none" font-family="Arial" font-size="13px" font-style="normal" font-weight="normal" text-decoration="none" x="1621" y="225">+createBackgroundRenderer(): IBackgroundRenderer</text></g></g><g transform="translate(-30,-86) scale(1,1)"><path fill="none" stroke="#000000" d="M 1615 178 L 1457 169" stroke-miterlimit="10" stroke-dasharray="3"/></g><g transform="translate(-30,-86) scale(1,1)"><path fill="none" stroke="#000000" d="M 1467.385622189367 165.37524459587593 L 1457 169 L 1466.9068330033417 173.7806547505442" stroke-miterlimit="10"/></g></g></svg>